<?xml version="1.0" encoding="UTF-8" standalone="no"?>
<!-- Created with Inkscape (http://www.inkscape.org/) -->

<svg
   xmlns:dc="http://purl.org/dc/elements/1.1/"
   xmlns:cc="http://creativecommons.org/ns#"
   xmlns:rdf="http://www.w3.org/1999/02/22-rdf-syntax-ns#"
   xmlns:svg="http://www.w3.org/2000/svg"
   xmlns="http://www.w3.org/2000/svg"
   xmlns:sodipodi="http://sodipodi.sourceforge.net/DTD/sodipodi-0.dtd"
   xmlns:inkscape="http://www.inkscape.org/namespaces/inkscape"
   width="64"
   height="64"
   viewBox="0 0 64.000001 64.000001"
   id="svg2"
   version="1.1"
   inkscape:version="0.91 r13725"
   sodipodi:docname="logo.svg">
  <defs
     id="defs4" />
  <sodipodi:namedview
     id="base"
     pagecolor="#ffffff"
     bordercolor="#666666"
     borderopacity="1.0"
     inkscape:pageopacity="0.0"
     inkscape:pageshadow="2"
     inkscape:zoom="7.3240046"
     inkscape:cx="32.037855"
     inkscape:cy="33.529979"
     inkscape:document-units="px"
     inkscape:current-layer="g5476"
     showgrid="false"
     units="px"
     inkscape:window-width="1189"
     inkscape:window-height="763"
     inkscape:window-x="2121"
     inkscape:window-y="133"
     inkscape:window-maximized="0" />
  <metadata
     id="metadata7">
    <rdf:RDF>
      <cc:Work
         rdf:about="">
        <dc:format>image/svg+xml</dc:format>
        <dc:type
           rdf:resource="http://purl.org/dc/dcmitype/StillImage" />
        <dc:title></dc:title>
      </cc:Work>
    </rdf:RDF>
  </metadata>
  <g
     inkscape:label="Layer 1"
     inkscape:groupmode="layer"
     id="layer1"
     transform="translate(0,-988.36216)">
    <g
       id="g5476"
       transform="translate(75.660426,-3.5355339)">
      <path
         style="opacity:1;fill-opacity:1"
         d="M 3.140625 0 C 1.4008775 0 0 1.4008775 0 3.140625 L 0 60.859375 C 0 62.599122 1.4008775 64 3.140625 64 L 15.085938 64 C 28.544872 63.996 36.355929 63.976266 36.224609 63.947266 C 36.065266 63.911466 35.957792 63.837153 35.765625 63.626953 C 35.537362 63.377153 35.515625 63.330434 35.515625 63.115234 C 35.515625 62.985034 35.548314 62.809564 35.589844 62.726562 C 35.654204 62.597563 35.658174 62.477109 35.615234 61.912109 L 35.564453 61.248047 L 35.244141 60.578125 C 34.956858 59.978125 34.91841 59.859578 34.875 59.455078 C 34.84786 59.206378 34.833597 58.960203 34.841797 58.908203 C 34.869557 58.740003 34.945364 57.2288 34.933594 57.0625 C 34.923829 56.9191 34.935556 56.902344 35.052734 56.902344 C 35.1249 56.902344 35.224911 56.864359 35.275391 56.818359 C 35.434499 56.674259 35.863281 55.162741 35.863281 54.744141 C 35.863281 54.511341 35.727201 54.368728 35.324219 54.173828 L 34.972656 54.003906 L 34.785156 54.089844 C 34.585493 54.181144 34.540032 54.253125 34.292969 54.890625 C 33.919788 55.849425 33.933623 55.829656 33.720703 55.847656 C 33.568043 55.860556 33.519705 55.835491 33.349609 55.650391 C 33.241678 55.532791 32.900707 55.08495 32.59375 54.65625 C 32.286793 54.22775 31.971325 53.830438 31.890625 53.773438 C 31.66719 53.614337 31.641414 53.438325 31.740234 52.703125 C 31.96939 50.998125 32.163699 50.385772 32.632812 49.888672 C 32.759919 49.754072 32.894038 49.562137 32.929688 49.460938 C 32.96537 49.359937 33.133215 48.986059 33.304688 48.630859 C 33.877147 47.445159 33.974609 47.148984 33.974609 46.583984 C 33.974609 46.209784 33.95209 46.161366 33.662109 45.947266 C 33.557861 45.870166 33.425021 45.717269 33.369141 45.605469 C 33.31321 45.493969 33.227974 45.357734 33.177734 45.302734 C 33.009593 45.118534 32.883906 44.764606 32.916016 44.566406 C 32.958522 44.304506 33.265749 43.977022 33.640625 43.794922 C 34.055972 43.593022 34.421884 43.439853 34.490234 43.439453 C 34.520917 43.439453 34.605264 43.409094 34.677734 43.371094 C 34.750229 43.333294 34.890041 43.275187 34.988281 43.242188 C 35.109151 43.202387 35.177036 43.144453 35.197266 43.064453 C 35.221984 42.966053 35.174902 42.897003 34.923828 42.658203 C 34.684606 42.430603 34.620564 42.339056 34.621094 42.222656 C 34.622588 41.899556 34.645919 41.878966 35.351562 41.572266 C 36.115302 41.240066 36.204927 41.157487 36.123047 40.867188 C 36.094467 40.765987 36.069153 40.520366 36.064453 40.322266 C 36.057389 39.990266 36.06331 39.962891 36.15625 39.962891 C 36.222562 39.962891 36.268592 40.006891 36.289062 40.087891 C 36.331581 40.256791 36.451683 40.242875 36.658203 40.046875 C 36.753028 39.956775 36.935757 39.799466 37.0625 39.697266 C 37.266197 39.529966 37.314843 39.515969 37.484375 39.542969 C 37.748967 39.584669 37.865339 39.527703 38.417969 39.095703 C 38.682585 38.888903 38.93016 38.720703 38.96875 38.720703 C 39.101087 38.720703 39.195048 38.508872 39.142578 38.326172 C 39.116459 38.234872 39.067046 37.928331 39.035156 37.644531 C 38.982747 37.178931 38.991704 36.986759 39.119141 35.693359 L 39.259766 34.259766 L 39.123047 33.298828 C 39.047304 32.770228 38.930461 31.956688 38.863281 31.492188 C 38.751751 30.721887 38.746588 30.601987 38.798828 30.117188 C 38.866846 29.486787 38.842681 29.073631 38.726562 28.832031 C 38.61488 28.599731 38.219997 28.362066 37.773438 28.259766 C 37.580799 28.215466 37.118827 28.030497 36.732422 27.841797 C 35.709701 27.342297 35.048591 27.143359 34.148438 27.068359 C 33.739279 27.034059 33.187351 26.907516 32.951172 26.791016 C 32.877441 26.754716 32.729519 26.600519 32.623047 26.449219 C 32.46831 26.229419 32.419303 26.103559 32.376953 25.818359 C 32.348093 25.622159 32.337046 25.410656 32.353516 25.347656 C 32.370717 25.282356 32.529478 25.131387 32.728516 24.992188 C 32.932777 24.849588 33.103664 24.687703 33.146484 24.595703 C 33.234051 24.407203 33.378906 23.514909 33.378906 23.162109 C 33.378906 22.978409 33.344073 22.846853 33.251953 22.689453 C 33.077855 22.392453 32.931641 21.955064 32.931641 21.726562 C 32.931641 21.482763 33.093707 21.070472 33.287109 20.826172 C 33.524266 20.526772 34.391795 19.989684 35.191406 19.646484 C 35.795437 19.387184 35.83927 19.351844 36.033203 18.964844 C 36.104415 18.822744 36.236172 18.644359 36.326172 18.568359 C 36.694943 18.254859 37.059153 17.627916 37.287109 16.916016 C 37.469354 16.347116 37.487447 16.109488 37.359375 15.929688 C 37.213621 15.724986 37.2274 15.524009 37.410156 15.162109 C 37.844124 14.302409 38.004468 13.361547 37.822266 12.748047 C 37.683429 12.280547 37.277545 11.963047 36.707031 11.873047 C 36.584088 11.853747 36.432311 11.803672 36.369141 11.763672 C 36.185138 11.647072 35.960938 11.255928 35.960938 11.048828 C 35.960937 10.719128 36.450303 9.6510781 36.632812 9.5800781 C 36.671496 9.5650781 36.783329 9.5803281 36.880859 9.6113281 C 37.043425 9.6655281 37.077849 9.6583375 37.292969 9.5234375 C 37.421995 9.4424375 37.63287 9.3351094 37.763672 9.2871094 C 38.044534 9.1830094 38.220518 8.9927875 38.267578 8.7421875 C 38.310625 8.5120875 38.239521 8.4186875 38.021484 8.4296875 C 37.746484 8.4401875 37.701113 8.3631163 37.695312 7.8789062 C 37.692732 7.6432062 37.665053 7.339625 37.632812 7.203125 L 37.574219 6.953125 L 37.277344 6.9648438 C 36.900069 6.9749438 36.493655 7.1141962 35.712891 7.5039062 C 34.976222 7.8698063 34.710101 7.9628594 34.613281 7.8808594 C 34.576493 7.8496594 34.485326 7.7786563 34.410156 7.7226562 C 34.168636 7.5416562 34.232031 7.2940594 34.628906 6.8808594 C 34.934005 6.5632494 35.348035 5.9701925 35.390625 5.7890625 C 35.41326 5.6929725 35.381602 5.623775 35.25 5.484375 C 35.156552 5.385435 35.042564 5.1909013 34.996094 5.0507812 C 34.896458 4.7507712 34.822487 4.6915956 34.363281 4.5410156 C 33.939522 4.4020756 33.857228 4.4356563 33.835938 4.7539062 C 33.821514 4.9700562 33.816812 4.9758688 33.589844 5.0429688 C 33.434477 5.0888687 33.055013 5.1171875 32.4375 5.1171875 C 31.930998 5.1207875 31.411522 5.1417625 31.283203 5.1640625 C 31.064199 5.2017125 31.035302 5.1946806 30.804688 5.0253906 C 30.458801 4.7711506 30.199607 4.6918563 29.615234 4.6601562 C 29.335196 4.6448563 29.107422 4.6106375 29.107422 4.5859375 C 29.107422 4.5600375 29.062174 4.5546656 29.007812 4.5722656 C 28.794432 4.6399056 28.819531 4.5310125 29.066406 4.3203125 C 29.551518 3.9061925 30.656971 3.2109569 31.267578 2.9355469 C 31.431499 2.8609569 31.609474 2.7798062 31.664062 2.7539062 C 31.866547 2.6579063 32.330499 2.5475144 33.03125 2.4277344 C 33.676717 2.3172844 33.906723 2.3067219 35.242188 2.2949219 C 36.543194 2.2879219 36.778264 2.2989062 37.103516 2.3789062 C 37.735841 2.5347764 38.34723 2.7160094 38.587891 2.8183594 C 38.714387 2.8722394 38.896538 2.9490344 38.992188 2.9902344 C 39.561324 3.2313044 41.927179 4.5839063 42.787109 5.1601562 C 43.437246 5.5956762 44.049761 6.1727494 44.380859 6.6621094 C 45.421344 8.1999294 45.596483 8.3725564 46.222656 8.4726562 C 46.758029 8.5582563 46.887061 8.6559594 47.328125 9.3183594 C 47.61382 9.7473594 48.186397 10.718131 48.332031 11.019531 C 48.386116 11.131331 48.454245 11.369928 48.484375 11.548828 C 48.585207 12.147828 48.718818 12.478012 48.972656 12.757812 C 49.33098 13.152714 49.454087 13.405516 49.568359 13.978516 C 49.708742 14.682416 49.704305 14.887456 49.544922 15.035156 C 49.322314 15.241556 49.315572 15.291384 49.449219 15.646484 C 49.517206 15.827084 49.572764 16.023937 49.572266 16.085938 C 49.571194 16.271238 49.387132 16.795628 49.191406 17.173828 C 48.986598 17.569628 48.963753 17.751306 49.089844 18.003906 C 49.136264 18.097006 49.175781 18.217484 49.175781 18.271484 C 49.175781 18.325284 49.034098 18.584656 48.861328 18.847656 C 48.688552 19.110756 48.476445 19.449562 48.390625 19.601562 C 48.30481 19.753462 48.162006 19.955781 48.072266 20.050781 C 47.698485 20.446781 47.731719 20.346175 47.53125 21.609375 C 47.479227 21.937275 47.404301 22.451453 47.363281 22.751953 C 47.322301 23.052553 47.277322 23.328234 47.263672 23.365234 C 47.250024 23.401334 47.203989 23.690766 47.162109 24.009766 C 47.120234 24.328966 47.064399 24.703344 47.037109 24.839844 C 47.009939 24.976544 46.975057 25.611806 46.960938 26.253906 C 46.929006 27.703306 46.91369 27.764659 46.378906 28.505859 C 45.538395 29.670859 45.487916 29.776606 45.478516 30.378906 C 45.473342 30.710106 45.449397 30.835872 45.373047 30.951172 C 45.197146 31.216072 45.151803 31.294022 45.101562 31.419922 C 45.074382 31.488122 45.034189 31.577141 45.011719 31.619141 C 44.989189 31.660041 44.907911 31.894725 44.832031 32.140625 C 44.623747 32.815325 44.41453 33.324388 44.224609 33.617188 C 44.130632 33.762087 43.964882 34.035263 43.855469 34.226562 C 43.746067 34.417763 43.618736 34.635031 43.572266 34.707031 C 43.525831 34.779331 43.365105 35.043822 43.214844 35.294922 C 43.064583 35.545922 42.918155 35.787984 42.890625 35.833984 C 42.678658 36.183584 42.46875 36.5455 42.46875 36.5625 C 42.46875 36.5737 42.345574 36.842856 42.195312 37.160156 C 42.045038 37.477556 41.921875 37.741906 41.921875 37.753906 C 41.921875 37.770606 41.46179 38.75995 41.240234 39.21875 C 40.93463 39.85155 40.52617 40.481641 39.96875 41.181641 C 39.642429 41.591441 39.36175 41.936172 39.34375 41.951172 C 39.32575 41.964872 39.200785 42.121228 39.066406 42.298828 C 38.932028 42.476428 38.796215 42.644875 38.765625 42.671875 C 38.734977 42.699275 38.489848 43.000397 38.220703 43.341797 C 37.951547 43.683297 37.701896 43.996109 37.666016 44.037109 C 37.630134 44.078209 37.495671 44.246356 37.367188 44.410156 C 37.238692 44.574056 37.108715 44.725141 37.078125 44.744141 C 37.047454 44.763341 36.981761 44.869869 36.931641 44.980469 C 36.843831 45.176169 36.842858 45.198875 36.929688 45.671875 C 37.013787 46.130775 37.014753 46.189253 36.939453 46.626953 C 36.895334 46.883453 36.846308 47.226725 36.830078 47.390625 C 36.788478 47.811525 36.669345 48.288322 36.525391 48.607422 C 36.233193 49.255322 36.144166 49.469594 36.134766 49.558594 C 36.127389 49.624294 36.206212 49.650312 36.556641 49.695312 C 36.793667 49.725313 37.155172 49.75 37.361328 49.75 C 38.181716 49.75 38.512233 49.906764 38.759766 50.414062 C 38.872074 50.644064 38.905541 50.79055 38.925781 51.15625 C 38.9547 51.67965 39.003251 51.816328 39.181641 51.861328 C 39.448868 51.928528 39.984973 52.292744 40.253906 52.589844 C 40.498263 52.859944 40.929688 53.614084 40.929688 53.771484 C 40.929688 53.867384 41.250157 53.822919 41.451172 53.699219 C 41.69834 53.546019 41.837485 53.543594 42.205078 53.683594 C 42.42374 53.766794 42.580923 53.879378 42.84375 54.142578 C 43.758826 55.058878 44.088704 56.614125 43.8125 58.703125 C 43.7591 59.106925 43.70256 59.457422 43.6875 59.482422 C 43.67245 59.506822 43.639641 59.645516 43.613281 59.791016 C 43.586916 59.936616 43.526469 60.177825 43.480469 60.328125 C 43.304043 60.903825 43.158404 61.352266 43.115234 61.447266 C 43.090527 61.501966 43.000836 61.713169 42.916016 61.917969 C 42.764402 62.284169 42.467501 62.859962 42.369141 62.976562 C 42.3416 63.009163 42.256278 63.1323 42.179688 63.25 C 41.951532 63.6003 41.859445 63.625719 40.978516 63.636719 C 40.421167 63.642719 40.127865 63.666516 39.912109 63.728516 C 39.748188 63.775016 39.468606 63.854297 39.291016 63.904297 C 38.975834 63.987297 39.341541 64 54.652344 64 L 60.859375 64 C 62.599122 64 64 62.599122 64 60.859375 L 64 3.140625 C 64 1.4008775 62.599122 0 60.859375 0 L 3.140625 0 z M 25.285156 5.4101562 L 25.251953 5.5332031 C 25.211176 5.6849031 24.786697 6.5760094 24.625 6.8496094 C 24.50865 7.0463094 24.508897 7.0563213 24.560547 7.7695312 C 24.589247 8.1656414 24.632563 8.5234531 24.658203 8.5644531 C 24.683851 8.6054531 24.935616 8.9904219 25.216797 9.4199219 C 25.497977 9.8493219 25.769676 10.295509 25.822266 10.412109 C 26.123382 11.082709 26.243095 11.864847 26.130859 12.435547 C 26.000374 13.098947 25.478595 13.787881 24.859375 14.113281 C 24.539205 14.281481 23.907137 14.474609 23.679688 14.474609 C 23.517345 14.474609 23.290572 14.573647 23.052734 14.748047 C 22.824048 14.915947 22.555764 14.909563 22.1875 14.726562 C 21.646657 14.457662 21.614441 14.38555 21.820312 13.90625 C 21.954265 13.59425 21.971832 13.494675 21.982422 12.984375 C 21.998751 12.211275 22.042532 11.989391 22.464844 10.525391 C 22.559446 10.197591 22.651572 9.8299313 22.669922 9.7070312 C 22.725994 9.3327314 22.905936 8.8125 22.978516 8.8125 C 23.078152 8.8125 23.181027 8.6181344 23.216797 8.3652344 C 23.250515 8.1266344 23.335354 7.8612469 23.433594 7.6855469 C 23.50063 7.5653469 23.779864 7.4554688 23.953125 7.4804688 C 24.087963 7.4995687 24.208173 7.4073381 24.353516 7.1738281 C 24.457396 7.0069281 24.472646 6.7796094 24.384766 6.7246094 C 24.276671 6.6572094 24.476234 6.2903388 24.789062 5.9804688 C 24.968358 5.8028886 25.152399 5.6014031 25.199219 5.5332031 L 25.285156 5.4101562 z M 25.927734 25.005859 C 25.955014 25.005859 25.978516 25.027687 25.978516 25.054688 C 25.978516 25.081686 25.955024 25.105469 25.927734 25.105469 C 25.900444 25.105469 25.878906 25.081688 25.878906 25.054688 C 25.878906 25.027688 25.900444 25.005859 25.927734 25.005859 z M 25.744141 25.304688 C 25.761676 25.304688 25.761671 25.340719 25.744141 25.386719 C 25.719551 25.451719 25.731178 25.4635 25.798828 25.4375 C 25.987834 25.3651 25.965706 25.471453 25.716797 25.814453 C 25.323533 26.356353 25.028436 26.644531 24.867188 26.644531 C 24.684525 26.644531 24.507267 26.844656 24.466797 27.097656 C 24.448907 27.209756 24.40818 27.388241 24.375 27.494141 L 24.375 27.496094 C 24.309266 27.707094 24.244368 27.74405 24.205078 27.59375 C 24.191308 27.54075 24.150534 27.508484 24.115234 27.521484 C 24.032221 27.553384 23.521599 26.901163 23.443359 26.664062 C 23.368523 26.437362 23.408073 26.181903 23.552734 25.970703 C 23.754748 25.675903 24.093944 25.611472 24.308594 25.826172 C 24.45829 25.976172 24.437416 25.975856 24.863281 25.847656 C 25.276321 25.723456 25.53125 25.598438 25.53125 25.523438 C 25.53125 25.465937 25.688261 25.304688 25.744141 25.304688 z M 41.021484 27.886719 C 40.878188 27.886719 40.715618 28.011175 40.648438 28.171875 C 40.531599 28.451475 40.597818 28.935184 40.859375 29.708984 C 41.148331 30.563884 41.181429 30.620878 41.460938 30.767578 C 41.653246 30.868578 41.739378 30.963731 41.921875 31.269531 C 42.126931 31.613831 42.150001 31.635137 42.181641 31.523438 C 42.26183 31.241437 42.486243 31.091222 43.179688 30.857422 C 43.651094 30.698622 43.803421 30.623525 43.996094 30.453125 C 44.177107 30.293125 44.137653 29.925153 43.914062 29.689453 C 43.781562 29.549953 43.783957 29.535641 43.943359 29.369141 C 44.071709 29.235241 44.073265 29.222344 44.015625 28.964844 C 43.982977 28.818844 43.923172 28.65075 43.882812 28.59375 C 43.711763 28.34925 43.265988 28.267078 42.796875 28.392578 C 42.592002 28.447378 42.571181 28.468328 42.519531 28.673828 L 42.464844 28.894531 L 41.945312 28.867188 C 41.659296 28.852188 41.393109 28.815156 41.355469 28.785156 C 41.317937 28.753956 41.272376 28.644169 41.253906 28.542969 C 41.208788 28.294869 41.064654 27.886719 41.021484 27.886719 z M 35.490234 29.832031 C 35.520493 29.862331 35.3432 30.472638 35.234375 30.710938 C 35.184081 30.821137 35.053423 30.942066 34.845703 31.072266 C 34.516934 31.278466 34.514245 31.282066 34.322266 31.884766 C 34.261349 32.075966 34.055389 32.556925 33.865234 32.953125 C 33.417993 33.884925 33.287643 34.233694 33.220703 34.683594 C 33.171174 35.016494 33.14661 35.07265 32.949219 35.28125 C 32.829429 35.40765 32.694981 35.585734 32.650391 35.677734 C 32.60579 35.769334 32.533764 35.855094 32.490234 35.871094 C 32.446739 35.887094 32.376877 35.926937 32.335938 35.960938 C 32.294961 35.994838 32.044042 36.092734 31.777344 36.177734 L 31.777344 36.175781 C 31.510634 36.260981 31.214081 36.330078 31.119141 36.330078 C 30.913009 36.330078 30.937366 36.365162 30.152344 34.976562 C 29.637077 34.065064 29.597656 33.974616 29.597656 33.728516 C 29.597656 33.582716 29.610123 33.387922 29.626953 33.294922 C 29.643783 33.202222 29.624041 32.868887 29.582031 32.554688 C 29.492021 31.880987 29.489603 31.599981 29.570312 31.363281 C 29.62296 31.208781 29.653053 31.185344 29.851562 31.152344 C 29.974505 31.133344 30.590377 31.096312 31.21875 31.070312 C 32.536815 31.016612 32.64371 30.998959 32.824219 30.818359 C 32.950197 30.692259 33.082031 30.337147 33.082031 30.123047 C 33.082031 30.053247 33.132565 30.013516 33.267578 29.978516 C 33.481381 29.924016 35.451524 29.793031 35.490234 29.832031 z "
         transform="translate(-75.660426,991.89769)"
         id="path5478" />
    </g>
  </g>
  <style
     id="style4219"
     type="text/css">
	.st0{fill:#2D3C49;}
	.st1{fill:#02B3E4;}
</style>
</svg>
